<svg id="svg" version="1.1" xmlns="http://www.w3.org/2000/svg" xmlns:xlink="http://www.w3.org/1999/xlink" width="400" height="301.6666666666667" viewBox="0, 0, 400,301.6666666666667"><g id="svgg"><path id="path0" d="M135.417 136.146 L 135.417 200.625 200.000 200.625 L 264.583 200.625 264.583 136.146 L 264.583 71.667 200.000 71.667 L 135.417 71.667 135.417 136.146 M184.534 101.719 L 184.479 109.063 176.771 109.063 L 169.063 109.063 169.008 101.719 L 168.953 94.375 176.771 94.375 L 184.589 94.375 184.534 101.719 M229.534 101.719 L 229.479 109.063 221.771 109.063 L 214.063 109.063 214.008 101.719 L 213.953 94.375 221.771 94.375 L 229.589 94.375 229.534 101.719 M205.208 141.255 C 222.614 142.461,237.943 149.367,251.207 161.979 L 253.339 164.006 253.284 170.996 C 253.221 178.989,253.285 178.777,251.557 176.729 C 223.785 143.809,176.928 143.867,148.307 176.856 C 146.624 178.796,146.667 178.950,146.667 170.941 L 146.667 163.990 149.020 161.788 C 165.161 146.686,184.036 139.788,205.208 141.255 M155.297 214.179 C 149.333 216.473,149.374 227.344,155.356 229.582 C 159.616 231.176,163.984 228.989,165.133 224.688 C 167.025 217.607,161.560 211.769,155.297 214.179 M205.491 214.172 C 199.506 216.538,199.539 227.316,205.538 229.575 C 207.302 230.239,210.246 230.119,211.797 229.320 C 216.959 226.659,216.947 217.091,211.779 214.420 C 210.313 213.663,207.101 213.536,205.491 214.172 M135.417 221.875 L 135.417 229.792 136.354 229.792 L 137.292 229.792 137.292 222.813 C 137.292 218.974,137.362 215.833,137.448 215.834 C 137.534 215.834,138.258 217.076,139.056 218.594 C 139.855 220.112,141.496 223.229,142.702 225.521 L 144.896 229.688 146.198 229.750 L 147.500 229.812 147.500 221.885 L 147.500 213.958 146.563 213.958 L 145.625 213.958 145.625 220.325 C 145.625 223.966,145.546 226.642,145.441 226.577 C 145.339 226.515,143.777 223.650,141.970 220.211 L 138.684 213.958 137.050 213.958 L 135.417 213.958 135.417 221.875 M166.250 214.896 L 166.250 215.833 169.063 215.833 L 171.875 215.833 171.875 222.813 L 171.875 229.792 172.917 229.792 L 173.958 229.792 173.958 222.813 L 173.958 215.833 176.771 215.833 L 179.583 215.833 179.583 214.896 L 179.583 213.958 172.917 213.958 L 166.250 213.958 166.250 214.896 M189.375 221.875 L 189.375 229.792 190.417 229.792 L 191.458 229.792 191.458 225.938 L 191.458 222.083 194.896 222.083 L 198.333 222.083 198.333 221.255 L 198.333 220.427 194.948 220.370 L 191.563 220.313 191.503 218.073 L 191.444 215.833 195.410 215.833 L 199.375 215.833 199.375 214.896 L 199.375 213.958 194.375 213.958 L 189.375 213.958 189.375 221.875 M218.958 219.650 C 218.958 228.523,219.965 230.187,225.195 229.958 C 230.072 229.745,230.833 228.353,230.833 219.650 L 230.833 213.958 229.896 213.958 L 228.958 213.958 228.958 219.034 C 228.958 227.220,228.299 228.564,224.426 228.271 C 221.307 228.035,220.961 227.205,220.872 219.740 L 220.804 213.958 219.881 213.958 L 218.958 213.958 218.958 219.650 M235.000 221.875 L 235.000 229.792 235.938 229.792 L 236.875 229.792 236.875 222.813 C 236.875 218.974,236.945 215.837,237.031 215.841 C 237.117 215.845,238.828 218.986,240.833 222.820 L 244.479 229.791 245.781 229.791 L 247.083 229.792 247.083 221.875 L 247.083 213.958 246.146 213.958 L 245.208 213.958 245.208 220.313 C 245.208 223.807,245.138 226.666,245.052 226.664 C 244.966 226.663,243.396 223.804,241.563 220.312 L 238.229 213.962 236.615 213.960 L 235.000 213.958 235.000 221.875 M251.250 221.846 L 251.250 229.792 253.802 229.788 C 261.251 229.775,264.569 227.337,264.581 221.867 C 264.592 216.574,261.660 214.234,254.740 214.012 L 251.250 213.901 251.250 221.846 M159.858 215.640 C 164.620 216.962,164.474 226.785,159.673 228.129 C 155.846 229.200,153.027 226.557,153.039 221.908 C 153.052 217.053,155.812 214.516,159.858 215.640 M210.029 215.658 C 214.739 217.070,214.729 226.684,210.016 228.096 C 205.957 229.312,202.829 226.177,203.187 221.250 C 203.508 216.829,206.306 214.543,210.029 215.658 M256.696 215.822 C 260.546 216.227,262.500 218.265,262.500 221.875 C 262.500 225.937,260.205 227.917,255.497 227.917 L 253.333 227.917 253.333 221.910 C 253.333 218.606,253.396 215.840,253.472 215.764 C 253.658 215.578,254.531 215.594,256.696 215.822 " stroke="none" fill="#ababab" fill-rule="evenodd"></path><path id="path1" d="M0.000 150.833 L 0.000 301.667 200.000 301.667 L 400.000 301.667 400.000 150.833 L 400.000 0.000 200.000 0.000 L 0.000 0.000 0.000 150.833 M264.792 136.146 L 264.792 200.833 200.000 200.833 L 135.208 200.833 135.208 136.146 L 135.208 71.458 200.000 71.458 L 264.792 71.458 264.792 136.146 M169.167 101.667 L 169.167 108.958 176.771 108.958 L 184.375 108.958 184.375 101.667 L 184.375 94.375 176.771 94.375 L 169.167 94.375 169.167 101.667 M214.167 101.667 L 214.167 108.958 221.771 108.958 L 229.375 108.958 229.375 101.667 L 229.375 94.375 221.771 94.375 L 214.167 94.375 214.167 101.667 M194.688 141.387 C 176.816 142.830,162.123 149.496,148.739 162.232 L 146.875 164.006 146.875 170.961 C 146.875 175.122,146.953 177.917,147.069 177.917 C 147.176 177.917,147.965 177.096,148.822 176.094 C 176.279 143.988,223.936 143.988,251.189 176.094 C 252.040 177.096,252.824 177.917,252.931 177.917 C 253.047 177.917,253.125 175.122,253.125 170.961 L 253.125 164.006 251.261 162.232 C 235.366 147.105,215.325 139.721,194.688 141.387 M161.458 214.201 C 167.101 216.827,167.004 227.106,161.312 229.623 C 157.256 231.418,152.512 229.349,151.240 225.231 C 148.897 217.645,154.911 211.154,161.458 214.201 M211.469 214.099 C 217.132 216.635,217.332 226.768,211.772 229.488 C 205.814 232.403,200.128 227.522,201.046 220.282 C 201.715 214.998,206.776 211.996,211.469 214.099 M142.048 220.047 L 145.313 226.240 145.417 220.047 L 145.521 213.854 146.563 213.854 L 147.604 213.854 147.651 221.507 C 147.706 230.520,147.837 229.827,146.093 229.749 L 144.738 229.688 141.171 222.917 L 137.604 216.146 137.549 222.969 L 137.494 229.792 136.455 229.792 L 135.417 229.792 135.417 221.802 L 135.417 213.813 137.100 213.833 L 138.783 213.854 142.048 220.047 M179.751 214.844 L 179.814 215.833 176.991 215.833 L 174.167 215.833 174.142 222.656 C 174.128 226.409,174.128 229.549,174.142 229.635 C 174.156 229.721,173.610 229.792,172.931 229.792 L 171.695 229.792 171.733 222.813 L 171.771 215.833 168.906 215.833 L 166.042 215.833 166.042 214.931 C 166.042 213.679,165.613 213.748,173.002 213.804 L 179.688 213.854 179.751 214.844 M199.543 214.844 L 199.606 215.833 195.636 215.833 L 191.667 215.833 191.667 218.021 L 191.667 220.208 195.104 220.208 L 198.542 220.208 198.542 221.250 L 198.542 222.292 195.104 222.292 L 191.667 222.292 191.667 226.042 L 191.667 229.792 190.521 229.792 L 189.375 229.792 189.375 221.776 L 189.375 213.760 194.427 213.807 L 199.479 213.854 199.543 214.844 M221.042 219.792 C 221.177 227.508,221.532 228.244,225.038 228.090 C 228.383 227.942,228.616 227.420,228.750 219.792 L 228.854 213.854 229.896 213.854 L 230.938 213.854 230.938 219.896 C 230.938 228.483,229.927 230.208,224.896 230.208 C 219.873 230.208,218.880 228.547,218.788 219.994 L 218.723 213.843 219.830 213.848 L 220.938 213.854 221.042 219.792 M238.372 214.115 C 238.543 214.315,240.081 217.151,241.790 220.417 L 244.896 226.354 245.000 220.104 L 245.104 213.854 246.094 213.791 L 247.083 213.727 247.083 221.769 L 247.083 229.811 245.677 229.749 L 244.271 229.688 241.354 224.154 C 239.750 221.111,238.135 218.064,237.766 217.383 L 237.094 216.146 237.089 222.980 L 237.083 229.813 235.990 229.750 L 234.896 229.688 234.838 222.188 C 234.806 218.063,234.831 214.477,234.894 214.219 C 235.048 213.587,237.850 213.503,238.372 214.115 M256.771 213.946 C 263.459 214.515,266.726 220.159,263.692 225.900 C 262.135 228.848,260.353 229.641,255.052 229.748 L 251.250 229.825 251.250 221.787 L 251.250 213.750 252.969 213.759 C 253.914 213.764,255.625 213.848,256.771 213.946 M155.814 216.106 C 153.633 217.247,152.596 220.638,153.351 224.160 C 154.422 229.154,161.169 229.624,162.807 224.818 C 164.754 219.105,160.414 213.698,155.814 216.106 M206.146 216.019 C 202.671 217.622,202.285 225.063,205.557 227.362 C 208.206 229.224,212.101 227.821,213.015 224.677 C 214.718 218.817,210.796 213.873,206.146 216.019 M253.542 221.877 L 253.542 227.980 255.836 227.849 C 260.616 227.576,262.508 225.638,262.248 221.282 C 262.033 217.688,260.146 216.140,255.677 215.892 L 253.542 215.773 253.542 221.877 " stroke="none" fill="#545454" fill-rule="evenodd"></path><path id="path2" d="M169.052 101.667 C 169.052 105.734,169.080 107.398,169.114 105.365 C 169.148 103.331,169.148 100.003,169.114 97.969 C 169.080 95.935,169.052 97.599,169.052 101.667 M184.469 101.667 C 184.469 105.734,184.497 107.398,184.531 105.365 C 184.565 103.331,184.565 100.003,184.531 97.969 C 184.497 95.935,184.469 97.599,184.469 101.667 M214.052 101.667 C 214.052 105.734,214.080 107.398,214.114 105.365 C 214.148 103.331,214.148 100.003,214.114 97.969 C 214.080 95.935,214.052 97.599,214.052 101.667 M229.469 101.667 C 229.469 105.734,229.497 107.398,229.531 105.365 C 229.565 103.331,229.565 100.003,229.531 97.969 C 229.497 95.935,229.469 97.599,229.469 101.667 M199.115 141.194 C 199.602 141.238,200.398 141.238,200.885 141.194 C 201.372 141.150,200.974 141.114,200.000 141.114 C 199.026 141.114,198.628 141.150,199.115 141.194 M197.242 152.022 C 197.501 152.072,197.876 152.070,198.075 152.018 C 198.275 151.966,198.063 151.925,197.604 151.928 C 197.146 151.930,196.983 151.973,197.242 152.022 M201.927 152.019 C 202.128 152.071,202.456 152.071,202.656 152.019 C 202.857 151.966,202.693 151.923,202.292 151.923 C 201.891 151.923,201.727 151.966,201.927 152.019 M146.760 170.521 C 146.760 174.188,146.788 175.658,146.823 173.789 C 146.857 171.920,146.857 168.920,146.822 167.122 C 146.788 165.325,146.760 166.854,146.760 170.521 M253.218 170.521 C 253.218 174.188,253.246 175.658,253.281 173.789 C 253.316 171.920,253.315 168.920,253.281 167.122 C 253.246 165.325,253.218 166.854,253.218 170.521 M145.371 220.228 C 145.339 223.677,145.383 226.542,145.469 226.595 C 145.555 226.648,145.625 223.826,145.625 220.325 C 145.625 216.823,145.581 213.958,145.527 213.958 C 145.473 213.958,145.402 216.780,145.371 220.228 M220.923 218.854 C 220.923 221.604,220.953 222.700,220.989 221.290 C 221.025 219.880,221.025 217.630,220.989 216.290 C 220.953 214.950,220.923 216.104,220.923 218.854 M191.536 218.021 C 191.537 219.281,191.571 219.770,191.613 219.107 C 191.654 218.444,191.654 217.413,191.612 216.815 C 191.570 216.218,191.536 216.760,191.536 218.021 M253.425 221.771 C 253.425 225.094,253.454 226.424,253.489 224.727 C 253.524 223.030,253.524 220.311,253.489 218.685 C 253.454 217.059,253.425 218.448,253.425 221.771 M236.968 223.125 C 236.968 226.849,236.996 228.372,237.031 226.510 C 237.065 224.648,237.065 221.602,237.031 219.740 C 236.996 217.878,236.968 219.401,236.968 223.125 M165.481 221.771 C 165.482 222.458,165.521 222.714,165.568 222.340 C 165.614 221.966,165.613 221.403,165.566 221.090 C 165.518 220.777,165.480 221.083,165.481 221.771 M203.178 221.771 C 203.180 222.229,203.223 222.392,203.272 222.133 C 203.322 221.874,203.320 221.499,203.268 221.300 C 203.216 221.100,203.175 221.313,203.178 221.771 M215.678 221.979 C 215.680 222.438,215.723 222.600,215.772 222.341 C 215.822 222.082,215.820 221.707,215.768 221.508 C 215.716 221.309,215.675 221.521,215.678 221.979 M191.551 222.351 C 191.494 222.498,191.476 224.256,191.511 226.257 L 191.573 229.896 191.620 226.099 L 191.667 222.302 195.052 222.239 L 198.438 222.176 195.046 222.130 C 192.440 222.094,191.630 222.145,191.551 222.351 " stroke="none" fill="#7c7c7c" fill-rule="evenodd"></path><path id="path3" d="M135.311 136.146 C 135.311 171.781,135.335 186.390,135.365 168.611 C 135.394 150.831,135.394 121.675,135.365 103.819 C 135.335 85.963,135.311 100.510,135.311 136.146 M264.686 136.146 C 264.686 171.781,264.710 186.390,264.740 168.611 C 264.769 150.831,264.769 121.675,264.740 103.819 C 264.710 85.963,264.686 100.510,264.686 136.146 M147.489 163.281 L 146.771 164.063 147.552 163.345 C 148.279 162.676,148.429 162.500,148.270 162.500 C 148.235 162.500,147.884 162.852,147.489 163.281 M252.292 163.229 C 252.680 163.630,253.045 163.958,253.103 163.958 C 253.160 163.958,252.889 163.630,252.500 163.229 C 252.111 162.828,251.746 162.500,251.689 162.500 C 251.632 162.500,251.903 162.828,252.292 163.229 M136.563 213.874 C 137.538 214.031,138.911 214.050,138.822 213.906 C 138.769 213.820,138.145 213.763,137.436 213.778 C 136.726 213.794,136.333 213.837,136.563 213.874 M166.125 214.041 C 166.064 214.200,166.046 214.693,166.085 215.134 C 166.151 215.878,166.163 215.857,166.255 214.844 C 166.356 213.727,166.323 213.524,166.125 214.041 M169.752 213.906 C 171.507 213.941,174.319 213.941,176.002 213.906 C 177.685 213.871,176.250 213.842,172.813 213.842 C 169.375 213.842,167.998 213.871,169.752 213.906 M179.580 214.854 L 179.680 215.938 179.749 215.024 C 179.787 214.521,179.742 214.034,179.649 213.940 C 179.555 213.847,179.524 214.258,179.580 214.854 M192.135 213.905 C 193.367 213.942,195.383 213.942,196.615 213.905 C 197.846 213.869,196.839 213.838,194.375 213.838 C 191.911 213.838,190.904 213.869,192.135 213.905 M235.787 213.903 C 236.277 213.947,237.027 213.946,237.453 213.901 C 237.880 213.857,237.479 213.821,236.563 213.821 C 235.646 213.822,235.297 213.859,235.787 213.903 M245.680 213.899 C 245.997 213.947,246.465 213.946,246.722 213.897 C 246.978 213.847,246.719 213.808,246.146 213.810 C 245.573 213.811,245.363 213.852,245.680 213.899 M252.240 213.904 C 252.841 213.946,253.826 213.946,254.427 213.904 C 255.029 213.862,254.536 213.827,253.333 213.827 C 252.130 213.827,251.638 213.862,252.240 213.904 M234.886 221.875 C 234.886 226.172,234.914 227.930,234.948 225.781 C 234.981 223.633,234.981 220.117,234.948 217.969 C 234.914 215.820,234.886 217.578,234.886 221.875 M147.593 221.875 C 147.593 225.714,147.622 227.284,147.656 225.365 C 147.690 223.445,147.690 220.305,147.656 218.385 C 147.622 216.466,147.593 218.036,147.593 221.875 M157.760 215.560 C 157.961 215.613,158.289 215.613,158.490 215.560 C 158.690 215.508,158.526 215.465,158.125 215.465 C 157.724 215.465,157.560 215.508,157.760 215.560 M207.969 215.560 C 208.169 215.613,208.497 215.613,208.698 215.560 C 208.898 215.508,208.734 215.465,208.333 215.465 C 207.932 215.465,207.768 215.508,207.969 215.560 M174.052 222.604 C 174.051 226.385,174.080 227.962,174.114 226.107 C 174.149 224.252,174.149 221.159,174.114 219.232 C 174.080 217.305,174.052 218.823,174.052 222.604 M171.759 222.500 C 171.759 226.109,171.788 227.586,171.823 225.781 C 171.857 223.977,171.857 221.023,171.823 219.219 C 171.788 217.414,171.759 218.891,171.759 222.500 M198.396 221.250 C 198.396 221.880,198.435 222.138,198.483 221.823 C 198.530 221.508,198.530 220.992,198.483 220.677 C 198.435 220.362,198.396 220.620,198.396 221.250 M163.190 221.771 C 163.191 222.458,163.230 222.714,163.276 222.340 C 163.322 221.966,163.321 221.403,163.274 221.090 C 163.226 220.777,163.188 221.083,163.190 221.771 M213.390 221.875 C 213.390 222.391,213.431 222.602,213.480 222.344 C 213.530 222.086,213.530 221.664,213.480 221.406 C 213.431 221.148,213.390 221.359,213.390 221.875 M200.882 221.875 C 200.882 222.276,200.925 222.440,200.977 222.240 C 201.029 222.039,201.029 221.711,200.977 221.510 C 200.925 221.310,200.882 221.474,200.882 221.875 M157.760 228.269 C 157.961 228.321,158.289 228.321,158.490 228.269 C 158.690 228.216,158.526 228.173,158.125 228.173 C 157.724 228.173,157.560 228.216,157.760 228.269 M207.969 228.269 C 208.169 228.321,208.497 228.321,208.698 228.269 C 208.898 228.216,208.734 228.173,208.333 228.173 C 207.932 228.173,207.768 228.216,207.969 228.269 " stroke="none" fill="#646464" fill-rule="evenodd"></path><path id="path4" d="M167.656 71.615 C 185.445 71.644,214.555 71.644,232.344 71.615 C 250.133 71.585,235.578 71.561,200.000 71.561 C 164.422 71.561,149.867 71.585,167.656 71.615 M172.982 109.114 C 175.138 109.148,178.607 109.148,180.691 109.114 C 182.774 109.080,181.010 109.053,176.771 109.053 C 172.531 109.053,170.826 109.080,172.982 109.114 M217.982 109.114 C 220.138 109.148,223.607 109.148,225.691 109.114 C 227.774 109.080,226.010 109.053,221.771 109.053 C 217.531 109.053,215.826 109.080,217.982 109.114 M197.031 141.189 C 197.289 141.238,197.711 141.238,197.969 141.189 C 198.227 141.139,198.016 141.098,197.500 141.098 C 196.984 141.098,196.773 141.139,197.031 141.189 M202.031 141.189 C 202.289 141.238,202.711 141.238,202.969 141.189 C 203.227 141.139,203.016 141.098,202.500 141.098 C 201.984 141.098,201.773 141.139,202.031 141.189 M199.115 152.028 C 199.602 152.071,200.398 152.071,200.885 152.028 C 201.372 151.984,200.974 151.948,200.000 151.948 C 199.026 151.948,198.628 151.984,199.115 152.028 M246.354 171.250 C 246.802 171.708,247.215 172.083,247.272 172.083 C 247.329 172.083,247.010 171.708,246.563 171.250 C 246.115 170.792,245.702 170.417,245.645 170.417 C 245.587 170.417,245.907 170.792,246.354 171.250 M152.286 172.448 L 150.938 173.854 152.344 172.506 C 153.650 171.254,153.845 171.042,153.692 171.042 C 153.660 171.042,153.027 171.674,152.286 172.448 M248.542 173.438 C 248.930 173.839,249.295 174.167,249.353 174.167 C 249.410 174.167,249.139 173.839,248.750 173.438 C 248.361 173.036,247.996 172.708,247.939 172.708 C 247.882 172.708,248.153 173.036,248.542 173.438 M167.656 200.781 C 185.445 200.811,214.555 200.811,232.344 200.781 C 250.133 200.752,235.578 200.728,200.000 200.728 C 164.422 200.728,149.867 200.752,167.656 200.781 M157.656 213.689 C 157.914 213.738,158.336 213.738,158.594 213.689 C 158.852 213.639,158.641 213.598,158.125 213.598 C 157.609 213.598,157.398 213.639,157.656 213.689 M207.865 213.689 C 208.122 213.738,208.544 213.738,208.802 213.689 C 209.060 213.639,208.849 213.598,208.333 213.598 C 207.818 213.598,207.607 213.639,207.865 213.689 M199.435 214.896 C 199.436 215.469,199.477 215.678,199.524 215.362 C 199.572 215.045,199.571 214.576,199.522 214.320 C 199.472 214.064,199.433 214.323,199.435 214.896 M218.841 219.167 C 218.841 222.089,218.870 223.284,218.906 221.823 C 218.941 220.362,218.941 217.971,218.906 216.510 C 218.870 215.049,218.841 216.245,218.841 219.167 M228.841 219.271 C 228.841 222.250,228.870 223.440,228.906 221.915 C 228.941 220.390,228.941 217.952,228.906 216.498 C 228.870 215.044,228.841 216.292,228.841 219.271 M230.924 219.167 C 230.924 222.089,230.953 223.284,230.989 221.823 C 231.025 220.362,231.025 217.971,230.989 216.510 C 230.953 215.049,230.924 216.245,230.924 219.167 M244.954 220.313 C 244.922 223.807,244.966 226.667,245.052 226.667 C 245.138 226.667,245.208 223.807,245.208 220.313 C 245.208 216.818,245.164 213.958,245.110 213.958 C 245.056 213.958,244.986 216.818,244.954 220.313 M162.708 215.065 C 162.708 215.101,163.013 215.406,163.385 215.742 L 164.063 216.354 163.451 215.677 C 162.880 215.046,162.708 214.904,162.708 215.065 M254.010 215.774 C 254.326 215.822,254.841 215.822,255.156 215.774 C 255.471 215.726,255.214 215.687,254.583 215.687 C 253.953 215.687,253.695 215.726,254.010 215.774 M137.336 222.865 C 137.381 229.915,137.452 229.125,137.551 220.469 C 137.580 217.919,137.534 215.833,137.448 215.833 C 137.362 215.833,137.312 218.997,137.336 222.865 M193.281 220.363 C 194.227 220.402,195.773 220.402,196.719 220.363 C 197.664 220.325,196.891 220.293,195.000 220.293 C 193.109 220.293,192.336 220.325,193.281 220.363 M157.656 230.147 C 157.914 230.197,158.336 230.197,158.594 230.147 C 158.852 230.097,158.641 230.057,158.125 230.057 C 157.609 230.057,157.398 230.097,157.656 230.147 M207.865 230.147 C 208.122 230.197,208.544 230.197,208.802 230.147 C 209.060 230.097,208.849 230.057,208.333 230.057 C 207.818 230.057,207.607 230.097,207.865 230.147 M224.534 230.147 C 224.793 230.197,225.168 230.195,225.367 230.143 C 225.566 230.091,225.354 230.050,224.896 230.053 C 224.438 230.055,224.275 230.098,224.534 230.147 " stroke="none" fill="#848484" fill-rule="evenodd"></path></g></svg>